# xmcd
#
# Track frame offsets:
#	150
#	28409
#	62079
#	101174
#	143950
#	170577
#	226345
#
# Disc length: 3299 seconds
#
# Revision: 1
# Processed by: cddbd v1.5.2PL0 Copyright (c) Steve Scherf et al.
# Submitted via: audiograbber 1.83.01
#
DISCID=630ce107
DTITLE=Grateful Dead - 95-04-07 Tampa Stadium, Tampa FL
DYEAR=1900
DGENRE=
TTITLE0=Jack Straw
TTITLE1=Peggy-O
TTITLE2=Little Red Rooster
TTITLE3=Loose Lucy
TTITLE4=When I Paint My Masterpiece
TTITLE5=Visions Of Johanna
TTITLE6=Promised Land
EXTD=
EXTT0=
EXTT1=
EXTT2=
EXTT3=
EXTT4=
EXTT5=
EXTT6=
PLAYORDER=
